<?xml version="1.0" encoding="UTF-8" standalone="no"?><!DOCTYPE svg PUBLIC "-//W3C//DTD SVG 1.1//EN" "http://www.w3.org/Graphics/SVG/1.1/DTD/svg11.dtd"><svg width="100%" height="100%" viewBox="0 0 8334 2788" version="1.1" xmlns="http://www.w3.org/2000/svg" xmlns:xlink="http://www.w3.org/1999/xlink" xml:space="preserve" xmlns:serif="http://www.serif.com/" style="fill-rule:evenodd;clip-rule:evenodd;stroke-linecap:round;stroke-linejoin:round;stroke-miterlimit:1.5;"><path d="M4772.04,1691.17c-0,0 -23.167,38.85 -35.459,53.758c-18.666,22.655 -29.875,42.534 -56.25,75.059c-26.666,32.871 -57.208,68.087 -91.583,99.583c-33.25,30.442 -79,64.038 -119.75,93.721c-40,29.117 -94.75,63.737 -139.333,93.258c-44.584,29.521 -104.417,62.025 -150.042,86.438c-44.154,23.637 -90.225,44.891 -135.479,65.016c-42.763,19.021 -90.346,40.709 -136.034,55.742c-51.787,17.046 -119.57,40.792 -179.337,52.762c-58.596,11.734 -132.329,16.85 -184.421,16.255c-50.225,-0.58 -88.162,-11.005 -134.8,-26.98c-44.871,-15.366 -90.937,-49.025 -130.287,-77.25c-39.442,-28.291 -77.375,-67.154 -111.646,-101.737c-36.2,-36.533 -68.375,-83.242 -103.196,-127.346c-34.108,-43.2 -69.442,-98.262 -102.004,-141.196c-30.538,-40.266 -66.713,-92.708 -93.038,-128.016c-21.496,-28.825 -45.341,-66.567 -65.075,-91.996c-16.829,-21.679 -52.362,-67.259 -52.362,-67.259l-124.754,-6.512l-124.817,2.558l-88.563,5.271c0,0 -31.133,46.692 -48.158,71.446c-19.075,27.721 -45.429,62.908 -66.283,94.892c-21.496,32.975 -50.225,66.9 -73.059,100.054c-22.55,32.746 -45.404,64.654 -68.758,98.2c-26.275,37.746 -63.058,90.721 -91.654,127.125c-25.6,32.587 -57.054,64.791 -84.496,92.241c-24.962,24.971 -51.437,49.621 -81.3,72.45c-30.325,23.184 -69.333,47.288 -106.433,64.809c-37.104,17.521 -87.663,31.762 -128.417,36.871c-47.05,5.895 -120.779,-1.871 -166.146,-6.321c-35.541,-3.484 -72.479,-15.454 -107.212,-24.284c-40.513,-10.291 -92.209,-25.091 -137.942,-41.17c-45.912,-16.142 -94.804,-38.85 -137.529,-57.521c-40.725,-17.8 -79.129,-37.838 -119.513,-59.117c-42.887,-22.604 -92.133,-49.604 -137.829,-76.504c-45.687,-26.892 -92.725,-59.475 -137.271,-90.958c-45.562,-32.205 -97.42,-76.367 -137.2,-111.05c-35.354,-30.83 -71.025,-69.096 -100.525,-107.025c-34.62,-44.517 -76.8,-116.78 -106.27,-169.584c-27.346,-48.987 -50.059,-107.771 -68.005,-154.587c-15.808,-41.229 -28.212,-83.604 -38.525,-127.471c-11.104,-47.208 -24.77,-103.463 -30.625,-155.796c-6.008,-53.704 -13.191,-110.754 -14.479,-166.433c-1.329,-57.525 3.275,-178.954 3.275,-178.954c0,-0 10.621,-114.113 29.417,-167.284c19.283,-54.541 53.312,-117.337 86.279,-159.95c29.183,-37.725 63.963,-71.304 104.154,-96.187c40.196,-24.884 82.184,-46.888 128.259,-61.4c46.12,-14.529 95.808,-25.788 144.566,-32.029c52.996,-6.788 119.134,-12.013 172.946,-13.988c49.958,-1.833 149.95,2.138 149.95,2.138l187.288,14.52l178.404,21.93l143.046,19.7c-0,-0 193.195,31.625 290.608,44.216c-0,0 261.346,42.709 344.2,55.484c50.858,7.837 103.712,17.437 152.921,21.15c47.316,3.57 94.9,1.054 142.35,1.12c52.471,0.08 114.987,-0.341 172.483,-0.662c60.338,-0.333 128.613,2.542 189.546,-1.35c59.025,-3.767 117.575,-13.225 176.062,-21.992c59.009,-8.846 118.559,-21.266 177.975,-31.079c75.155,-12.408 192.517,-30.692 272.938,-43.371c69.854,-11.012 145.433,-23.104 209.604,-32.708c58.417,-8.746 116.75,-18.288 175.442,-24.933c66.237,-7.5 153.733,-15.742 221.987,-20.059c62.421,-3.95 127.7,-6.966 187.534,-5.85c57.333,1.071 117.875,4.904 171.541,12.546c50.834,7.242 102.084,15.958 150.459,33.308c49.583,17.788 102.875,41.646 147.041,73.425c44.125,31.775 37.25,23.321 117.834,117.234l161.208,0.579c-100.333,0.171 2921.92,-0.429 2921.92,-0.429c-0,-0 44.833,0.479 65,8.671c20.208,8.196 39.916,21.862 56.166,40.5c21.125,24.245 44.792,61.196 46.792,97.058c8.417,149.842 10.292,646.467 3.5,801.992c-2,46.104 -17.583,100.096 -44.292,131.158c-26.708,31.063 -73.166,54.446 -115.958,55.217c-508.208,9.154 -2933.12,-0.288 -2933.12,-0.288l-243.458,-0.829Z" style="fill:#fff;fill-opacity:0.3;stroke:#000;stroke-opacity:0.94;stroke-width:64.83px;"/><g><g><path d="M752.383,1453.98c-83.51,-0 -148.81,-16.825 -195.897,-50.469c-47.087,-33.647 -70.628,-80.487 -70.628,-140.521l-0,-209.791c-0,-60.693 23.322,-107.699 69.963,-141.015c46.641,-33.315 112.165,-49.975 196.562,-49.975c83.515,0 147.704,14.516 192.569,43.541c44.865,29.028 67.295,71.912 67.295,128.646l0,60.366l-209.221,-0l0,-65.313c0,-21.771 -4.221,-36.781 -12.662,-45.028c-8.438,-8.243 -21.101,-12.368 -37.981,-12.368c-16.879,-0 -29.096,5.112 -36.646,15.337c-7.549,10.228 -11.328,27.544 -11.328,51.953l-0,237.5c-0,24.412 3.997,41.562 11.993,51.459c7.996,9.897 20.436,14.844 37.315,14.844c16.88,-0 29.32,-4.288 37.316,-12.866c7.995,-8.575 11.993,-23.087 11.993,-43.54l0,-76.197l209.221,-0l0,69.269c0,56.737 -22.653,99.949 -67.964,129.637c-45.307,29.687 -109.273,44.531 -191.9,44.531Z" style="fill-rule:nonzero;"/></g><g><path d="M1126.86,642.519l215.887,0l-0,280.053c54.19,-40.244 117.269,-60.366 189.231,-60.366c44.423,0 79.07,12.369 103.946,37.109c24.875,24.741 37.315,56.9 37.315,96.485l-0,448.28l-215.887,0l-0,-425.521c-0,-14.512 -3.333,-25.234 -9.995,-32.159c-6.662,-6.928 -17.99,-10.391 -33.982,-10.391c-20.436,1.319 -43.977,8.247 -70.628,20.781l-0,447.29l-215.887,0l-0,-801.561Z" style="fill-rule:nonzero;"/></g><g><path d="M2055.7,1453.98c-84.398,-0 -150.14,-16.659 -197.227,-49.975c-47.087,-33.316 -70.633,-80.322 -70.633,-141.015l0,-209.791c0,-60.693 23.546,-107.699 70.633,-141.015c47.087,-33.315 112.829,-49.975 197.227,-49.975c85.29,0 149.256,16.163 191.899,48.491c42.648,32.325 63.967,79.825 63.967,142.499l-0,114.791l-309.169,-0l0,100.937c0,46.841 17.322,70.259 51.973,70.259c38.199,0 57.301,-18.471 57.301,-55.415l-0,-60.366l199.895,0l-0,55.419c-0,57.394 -22.43,100.937 -67.295,130.625c-44.865,29.687 -107.725,44.531 -188.571,44.531Zm55.971,-361.199l-0,-57.394c-0,-21.112 -5.109,-36.122 -15.323,-45.028c-10.218,-8.906 -24.21,-13.359 -41.978,-13.359c-16.879,-0 -29.765,4.95 -38.649,14.843c-8.884,9.897 -13.324,27.382 -13.324,52.45l0,48.488l109.274,-0Z" style="fill-rule:nonzero;"/></g><g><path d="M2588.76,1453.98c-37.316,-0 -69.518,-6.763 -96.615,-20.288c-27.098,-13.525 -47.533,-31.006 -61.303,-52.446c-13.769,-21.441 -20.654,-43.706 -20.654,-66.797c-0,-41.562 13.546,-76.034 40.644,-103.412c27.097,-27.378 58.857,-48.491 95.285,-63.335c36.423,-14.843 82.622,-30.181 138.592,-46.015l42.643,-11.875l0,-57.394c0,-16.493 -3.329,-29.028 -9.995,-37.606c-6.661,-8.575 -18.432,-12.862 -35.312,-12.862c-16.879,-0 -28.873,3.956 -35.981,11.875c-7.108,7.915 -11.106,19.131 -11.993,33.643l-5.332,41.563l-202.56,-5.938l1.33,-18.8c6.22,-62.675 32.207,-108.69 77.959,-138.046c45.757,-29.36 111.277,-44.038 196.567,-44.038c75.514,0 133.261,15.669 173.24,47.006c39.979,31.338 59.968,73.063 59.968,125.181l0,267.187c0,48.819 4.444,96.319 13.328,142.5l-194.563,0c-7.996,-44.2 -13.774,-71.25 -17.326,-81.147c-10.66,26.391 -28.431,48.163 -53.307,65.313c-24.875,17.153 -56.412,25.731 -94.615,25.731Zm77.294,-108.856c11.547,-0 22.653,-2.803 33.313,-8.409c10.664,-5.61 19.989,-12.372 27.985,-20.288l0,-156.353c-35.535,13.194 -64.631,31.5 -87.285,54.922c-22.657,23.419 -33.982,46.016 -33.982,67.784c0,19.135 5.774,34.306 17.322,45.522c11.551,11.216 25.767,16.822 42.647,16.822Z" style="fill-rule:nonzero;"/></g><g><path d="M3064.51,872.103l217.221,0l0,41.562c24.876,-16.493 51.527,-29.193 79.959,-38.099c28.427,-8.907 55.97,-13.36 82.622,-13.36c56.858,0 99.282,15.503 127.268,46.509c27.985,31.01 41.978,71.582 41.978,121.719l-0,246.406c-0,54.759 -14.662,97.968 -43.977,129.637c-29.32,31.666 -70.633,47.5 -123.935,47.5c-54.195,-0 -108.832,-17.813 -163.915,-53.437l0,231.562l-217.221,-0l0,-759.999Zm274.522,477.968c19.548,-0 33.982,-5.938 43.312,-17.813c9.33,-11.875 13.993,-27.378 13.993,-46.512l-0,-267.187c-0,-16.491 -4.444,-30.509 -13.328,-42.056c-8.884,-11.544 -22.207,-17.319 -39.979,-17.319c-18.656,0 -39.091,6.6 -61.299,19.794l0,356.249c20.432,9.894 39.533,14.844 57.301,14.844Z" style="fill-rule:nonzero;"/></g><g><path d="M3954.71,1450.02c-54.19,-1.319 -95.503,-11.216 -123.935,-29.688c-28.427,-18.472 -47.305,-42.387 -56.635,-71.743c-9.33,-29.36 -13.993,-64.819 -13.993,-106.382l0,-264.218l-74.626,0l-0,-105.884l74.626,0l0,-174.168l219.885,-0l-0,174.168l109.277,0l0,105.884l-109.277,0l-0,294.897c-0,31.006 24.875,46.509 74.626,46.509c11.552,-0 22.435,-0.66 32.653,-1.978c10.213,-1.319 16.656,-1.982 19.32,-1.982l-0,126.669c-45.307,5.937 -84.844,8.906 -118.603,8.906l-33.318,-0.99Z" style="fill-rule:nonzero;"/></g><g><path d="M4461.1,1453.98c-84.377,-0 -150.153,-16.659 -197.202,-49.975c-47.091,-33.316 -70.658,-80.322 -70.658,-141.015l0,-209.791c0,-60.693 23.567,-107.699 70.658,-141.015c47.049,-33.315 112.825,-49.975 197.202,-49.975c85.303,0 149.269,16.163 191.9,48.491c42.672,32.325 63.966,79.825 63.966,142.499l0,114.791l-309.185,-0l-0,100.937c-0,46.841 17.338,70.259 52.015,70.259c38.169,0 57.275,-18.471 57.275,-55.415l-0,-60.366l199.895,0l0,55.419c0,57.394 -22.43,100.937 -67.291,130.625c-44.861,29.687 -107.733,44.531 -188.575,44.531Zm55.971,-361.199l-0,-57.394c-0,-21.112 -5.092,-36.122 -15.318,-45.028c-10.227,-8.906 -24.198,-13.359 -41.957,-13.359c-16.918,-0 -29.795,4.95 -38.675,14.843c-8.879,9.897 -13.34,27.382 -13.34,52.45l-0,48.488l109.29,-0Z" style="fill-rule:nonzero;"/></g><g><path d="M4994.18,1453.98c-37.328,-0 -69.521,-6.763 -96.623,-20.288c-27.102,-13.525 -47.554,-31.006 -61.315,-52.446c-13.762,-21.441 -20.663,-43.706 -20.663,-66.797c-0,-41.562 13.551,-76.034 40.652,-103.412c27.102,-27.378 58.875,-48.491 95.277,-63.335c36.444,-14.843 82.651,-30.181 138.622,-46.015l42.63,-11.875l0,-57.394c0,-16.493 -3.324,-29.028 -9.974,-37.606c-6.691,-8.575 -18.474,-12.862 -35.35,-12.862c-16.875,-0 -28.869,3.956 -35.981,11.875c-7.112,7.915 -11.11,19.131 -11.993,33.643l-5.303,41.563l-202.589,-5.938l1.347,-18.8c6.228,-62.675 32.194,-108.69 77.98,-138.046c45.745,-29.36 111.268,-44.038 196.529,-44.038c75.539,0 133.278,15.669 173.257,47.006c39.979,31.338 59.968,73.063 59.968,125.181l0,267.187c0,48.819 4.419,96.319 13.341,142.5l-194.593,0c-7.996,-44.2 -13.761,-71.25 -17.296,-81.147c-10.69,26.391 -28.449,48.163 -53.32,65.313c-24.871,17.153 -56.433,25.731 -94.603,25.731Zm77.265,-108.856c11.573,-0 22.683,-2.803 33.33,-8.409c10.647,-5.61 19.989,-12.372 27.985,-20.288l0,-156.353c-35.518,13.194 -64.64,31.5 -87.281,54.922c-22.64,23.419 -34.003,46.016 -34.003,67.784c0,19.135 5.808,34.306 17.339,45.522c11.53,11.216 25.754,16.822 42.63,16.822Z" style="fill-rule:nonzero;"/></g><g><path d="M5472.58,872.103l217.234,0l-0,95c47.091,-67.953 98.601,-101.928 154.571,-101.928c4.461,-0 14.645,1.319 30.637,3.959l0,140.519c-3.535,-0.66 -7.996,-1.319 -13.298,-1.978c-5.345,-0.66 -11.994,-0.991 -19.99,-0.991c-31.983,1.981 -60.221,8.744 -84.629,20.287c-24.451,11.547 -46.881,28.535 -67.291,50.963l-0,366.146l-217.234,0l0,-571.977Z" style="fill-rule:nonzero;"/></g><g><path d="M6217.54,1453.98c-84.419,-0 -150.363,-15.834 -197.917,-47.5c-47.512,-31.669 -71.289,-78.178 -71.289,-139.531l0,-217.709c0,-61.353 23.777,-107.865 71.289,-139.531c47.554,-31.665 113.498,-47.5 197.917,-47.5c84.377,0 150.574,16 198.549,47.994c47.975,31.997 71.962,78.343 71.962,139.037l0,217.709c0,60.694 -23.987,107.04 -71.962,139.034c-47.975,31.997 -114.172,47.997 -198.549,47.997Zm0,-106.875c21.295,0 35.982,-5.772 43.977,-17.319c7.996,-11.543 11.994,-28.862 11.994,-51.953l0,-239.477c0,-23.091 -3.998,-40.41 -11.994,-51.953c-7.995,-11.547 -22.682,-17.319 -43.977,-17.319c-19.568,-0 -33.54,5.937 -41.999,17.812c-8.416,11.875 -12.667,29.029 -12.667,51.46l0,239.477c0,23.091 4.251,40.41 12.667,51.953c8.459,11.547 22.431,17.319 41.999,17.319Z" style="fill-rule:nonzero;"/></g><g><path d="M7290.28,782.05c-33.751,0 -50.626,14.844 -50.626,44.531l-0,45.522l97.296,0l0,108.853l-97.296,-0l-0,463.124l-217.234,0l0,-463.124l-169.216,-0l-0,463.124l-217.234,0l-0,-463.124l-73.309,-0l-0,-108.853l73.309,0l-0,-42.553c-0,-38.262 4.882,-69.106 14.645,-92.525c9.763,-23.422 30.005,-41.728 60.642,-54.922c30.679,-13.193 75.75,-19.793 135.255,-19.793c35.561,-0 70.195,1.65 103.946,4.95l-0,119.737c-19.527,-3.297 -35.098,-4.947 -46.628,-4.947c-33.751,0 -50.626,14.844 -50.626,44.531l-0,45.522l169.216,0l0,-42.553c0,-38.262 4.882,-69.106 14.687,-92.525c9.764,-23.422 29.964,-41.728 60.642,-54.922c30.637,-13.193 75.708,-19.793 135.256,-19.793c36.402,-0 71.036,1.65 103.945,4.95l0,119.737c-19.568,-3.297 -35.097,-4.947 -46.67,-4.947Z" style="fill-rule:nonzero;"/></g><g><path d="M7647.44,1453.98c-65.734,-0 -120.147,-11.381 -163.241,-34.141c-43.093,-22.762 -77.98,-59.209 -104.618,-109.349l147.922,-48.491c14.224,26.391 30.889,46.841 49.995,61.356c19.064,14.513 39.727,21.769 61.946,21.769c16.876,-0 29.753,-3.463 38.633,-10.391c8.879,-6.925 13.34,-16.328 13.34,-28.203c-0.883,-11.212 -9.342,-22.925 -25.334,-35.128c-15.991,-12.206 -43.093,-29.853 -81.263,-52.943l-55.97,-34.635c-46.208,-29.028 -79.748,-55.418 -100.621,-79.168c-20.874,-23.75 -31.31,-52.116 -31.31,-85.103c-0,-30.347 10.857,-57.397 32.656,-81.147c21.757,-23.75 50.837,-42.384 87.281,-55.909c36.402,-13.525 75.497,-20.288 117.244,-20.288c63.083,0 115.729,12.7 157.938,38.1c42.21,25.4 72.173,61.847 89.932,109.347l-139.927,47.5c-8.879,-21.11 -22.64,-40.078 -41.283,-56.9c-18.685,-16.822 -39.096,-25.235 -61.316,-25.235c-14.224,0 -25.544,2.969 -33.961,8.907c-8.458,5.937 -12.667,13.853 -12.667,23.75c0,11.875 8.206,24.409 24.661,37.603c16.412,13.197 44.187,31.668 83.283,55.418l54.624,35.625c30.216,19.791 54.413,36.613 72.635,50.469c18.222,13.853 33.751,30.347 46.629,49.478c12.877,19.131 19.316,39.912 19.316,62.344c-0,32.328 -11.321,60.199 -33.961,83.618c-22.683,23.422 -52.857,41.234 -90.606,53.438c-37.79,12.206 -78.443,18.309 -121.957,18.309Z" style="fill-rule:nonzero;"/></g></g><g><g><path d="M4999.7,2251.86l-186.939,0l-49.517,152.397l186.94,-0l49.516,-152.397Z"/></g><g><path d="M5275.93,2414.16c-76.068,-0 -130.083,-16.825 -162.043,-50.469c-31.958,-33.647 -38.182,-80.487 -18.676,-140.521l68.165,-209.791c19.721,-60.693 56.234,-107.699 109.548,-141.015c53.31,-33.316 118.404,-49.975 195.285,-49.975c76.068,0 129.821,14.516 161.258,43.541c31.435,29.028 37.936,71.912 19.502,128.646l-19.614,60.366l-190.581,-0l21.221,-65.313c7.074,-21.771 8.11,-36.781 3.1,-45.028c-5.011,-8.243 -15.201,-12.368 -30.577,-12.368c-15.375,-0 -28.164,5.112 -38.364,15.337c-10.204,10.228 -19.269,27.544 -27.2,51.953l-77.168,237.5c-7.932,24.412 -9.863,41.562 -5.795,51.459c4.067,9.897 13.791,14.844 29.167,14.844c15.375,-0 28.096,-4.288 38.166,-12.866c10.07,-8.575 18.427,-23.087 25.072,-43.54l24.758,-76.197l190.582,-0l-22.507,69.268c-18.435,56.738 -53.111,99.95 -104.03,129.638c-50.92,29.687 -114.009,44.531 -189.269,44.531Z" style="fill-rule:nonzero;"/></g><g><path d="M5831.89,2414.16c-76.878,-0 -131.82,-15.834 -164.829,-47.5c-33.003,-31.669 -39.538,-78.178 -19.604,-139.531l70.738,-217.709c19.935,-61.353 56.695,-107.865 110.277,-139.531c53.586,-31.666 118.819,-47.5 195.696,-47.5c76.881,0 131.973,16 165.277,47.994c33.304,31.997 40.095,78.343 20.374,139.037l-70.738,217.709c-19.721,60.694 -56.63,107.04 -110.725,139.034c-54.096,31.997 -119.585,47.997 -196.466,47.997Zm34.725,-106.875c19.424,0 34.651,-5.772 45.686,-17.319c11.034,-11.543 20.303,-28.862 27.805,-51.953l77.812,-239.477c7.502,-23.091 9.488,-40.41 5.955,-51.953c-3.531,-11.547 -15.007,-17.319 -34.431,-17.319c-17.802,-0 -32.477,5.937 -44.025,17.812c-11.544,11.875 -20.962,29.028 -28.251,51.46l-77.811,239.477c-7.502,23.091 -9.285,40.41 -5.35,51.953c3.938,11.547 14.808,17.319 32.61,17.319Z" style="fill-rule:nonzero;"/></g><g><path d="M6362.06,1832.28l194.219,-0l-14.79,45.519c59.157,-37.603 120.7,-56.407 184.632,-56.407c28.325,0 50.928,5.775 67.812,17.319c16.883,11.547 26.942,28.535 30.177,50.963c64.152,-45.519 131.029,-68.282 200.627,-68.282c41.27,0 70.228,12.372 86.873,37.11c16.644,24.74 17.997,58.553 4.064,101.434l-144.369,444.321l-194.219,-0l138.903,-427.499c4.93,-15.172 5.538,-26.388 1.829,-33.647c-3.715,-7.256 -12.449,-10.884 -26.207,-10.884c-8.901,-0 -20.416,1.815 -34.543,5.443c-14.124,3.628 -27.523,8.741 -40.185,15.338l-146.62,451.249l-191.793,-0l138.903,-427.499c9.646,-29.688 1.114,-44.531 -25.589,-44.531c-21.041,-0 -45.951,6.928 -74.732,20.781l-146.62,451.249l-194.219,-0l185.847,-571.977Z" style="fill-rule:nonzero;"/></g></g></svg>